<?xml version="1.0" encoding="utf-8"?>
<!-- Generator: Adobe Illustrator 19.0.0, SVG Export Plug-In . SVG Version: 6.00 Build 0)  -->
<svg version="1.1" id="Layer_1" xmlns="http://www.w3.org/2000/svg" xmlns:xlink="http://www.w3.org/1999/xlink" x="0px" y="0px"
	 viewBox="-1633 1264.6 135 24" style="enable-background:new -1633 1264.6 135 24;" xml:space="preserve">
<style type="text/css">
	.st0{fill:#46B8B0;}
	.st1{fill:#0B1725;}
</style>
<title>Page 1 Copy</title>
<desc>Created with Sketch.</desc>
<path id="XMLID_16_" class="st0" d="M-1523.4,1274.2C-1523.4,1274.2-1523.4,1274.2-1523.4,1274.2L-1523.4,1274.2c0-2.9,0-5.8,0-8.7
	c8.5,0,17,0,25.4,0c0,0,0,0,0,0c0,0-0.1,0-0.1,0c-8.4,0-16.8,0-25.2,0c-0.1,0-0.1,0-0.1,0.1
	C-1523.4,1268.4-1523.4,1271.2-1523.4,1274.2C-1523.4,1274.1-1523.4,1274.1-1523.4,1274.2z"/>
<path id="XMLID_15_" class="st1" d="M-1523.4,1274.2C-1523.4,1274.1-1523.4,1274.1-1523.4,1274.2c0-2.9,0-5.8,0-8.6
	c0-0.1,0-0.1,0.1-0.1c8.4,0,16.8,0,25.2,0c0,0,0.1,0,0.1,0c0,0,0,0.1,0,0.1c0,2.9,0,5.7,0,8.6c0,0.1,0,0.1-0.1,0.1
	c-2.6,0-5.2,0-7.7,0c0,0,0,0-0.1,0c0,0,0,0,0-0.1c0.7-0.8,1.2-1.7,1.5-2.8c0.1-0.5,0.2-0.9,0.2-1.4c0,0,0,0,0,0c0,0,0-0.1,0-0.1
	c0,0-0.1,0-0.1,0c-0.7,0-1.4,0-2.2,0c-0.1,0-0.1,0-0.1,0.1c0,0.6-0.1,1.1-0.4,1.7c-0.6,1.2-1.6,2-2.9,2.3c-2.2,0.5-4.3-1-4.9-3.1
	c-0.1-0.3-0.1-0.6-0.1-0.9c0-0.1,0-0.1-0.1-0.1c-0.8,0-1.5,0-2.3,0c-0.1,0-0.1,0-0.1,0.1c0,1.2,0.4,2.4,1,3.4
	c0.2,0.3,0.4,0.6,0.7,0.9c0,0,0,0,0,0c0,0,0,0-0.1,0C-1518.2,1274.2-1520.8,1274.2-1523.4,1274.2
	C-1523.4,1274.2-1523.4,1274.2-1523.4,1274.2z"/>
<path id="XMLID_14_" class="st0" d="M-1506.3,1281.3c0,2.2,0,4.3,0,6.5c0,0.1,0,0.1-0.1,0.1c-2.8,0-5.7,0-8.5,0
	c-0.1,0-0.1,0-0.1-0.1c0-4.3,0-8.6,0-12.9c0,0,0,0,0,0c0,0,0-0.1,0-0.1c0,0,0.1,0,0.1,0c0.1,0,0.1,0.1,0.2,0.1
	c0.8,0.6,1.6,1,2.5,1.3c0.3,0.1,0.6,0.1,0.9,0.1c0.4,0,0.7,0,1.1,0c0.8,0,1.6-0.2,2.3-0.6c0.6-0.3,1.1-0.6,1.5-1
	c0,0,0.1-0.1,0.1-0.1c0,0,0,0,0,0c0,0,0,0.1,0,0.1C-1506.3,1277-1506.3,1279.1-1506.3,1281.3z"/>
<path id="XMLID_11_" class="st1" d="M-1547,1277c0-2.7,0-5.3,0-8c0-0.1,0-0.2,0-0.3c0-0.4,0.3-0.6,0.7-0.7c0.1,0,0.1,0,0.2,0
	c2.3,0,4.7,0,7,0c1.2,0,2.4,0.2,3.6,0.6c1.9,0.8,3,2.2,3.2,4.2c0.1,1,0.1,1.9-0.2,2.9c-0.3,1.2-1.1,2.2-2.1,2.8
	c-0.1,0.1-0.3,0.2-0.4,0.2c-0.2,0.1-0.2,0.1-0.1,0.4c0.6,1.2,1.2,2.3,1.8,3.5c0.4,0.7,0.8,1.5,1.1,2.2c0,0.1,0.1,0.2,0.1,0.3
	c0.1,0.3-0.1,0.7-0.4,0.7c-0.1,0-0.2,0-0.3,0c-1.1,0-2.1,0-3.2,0c-0.1,0-0.1,0-0.2,0c-0.4,0-0.7-0.2-0.9-0.5
	c-0.1-0.1-0.2-0.2-0.2-0.4c-0.9-1.7-1.7-3.4-2.6-5c-0.1-0.2-0.2-0.3-0.4-0.3c-0.6,0-1.1,0-1.7,0c-0.3,0-0.3,0-0.3,0.3
	c0,1.6,0,3.2,0,4.8c0,0.1,0,0.2,0,0.2c0,0.4-0.3,0.7-0.7,0.7c-0.1,0-0.1,0-0.2,0c-1,0-2,0-2.9,0c-0.1,0-0.1,0-0.2,0
	c-0.5,0-0.7-0.3-0.7-0.8c0-0.8,0-1.6,0-2.4C-1547,1280.9-1547,1278.9-1547,1277z M-1542.2,1273.9c0,0.6,0,1.1,0,1.7
	c0,0.1,0,0.2,0.2,0.2c1,0,2,0,2.9,0c0.5,0,1-0.1,1.4-0.4c0.4-0.2,0.6-0.5,0.7-0.9c0.1-0.3,0.1-0.6,0.1-0.9c-0.1-0.7-0.4-1.1-1.1-1.4
	c-0.4-0.1-0.8-0.2-1.2-0.2c-0.9,0-1.9,0-2.8,0c-0.2,0-0.2,0-0.2,0.2C-1542.2,1272.9-1542.2,1273.4-1542.2,1273.9z"/>
<path id="XMLID_10_" class="st1" d="M-1569.9,1275.2c0.9,0,1.9,0,2.8,0c0.1,0,0.1,0,0.2,0c0.5,0,0.7,0.3,0.7,0.8c0,1.1,0,2.3,0,3.4
	c0,0.4-0.1,0.9-0.1,1.3c-0.4,2.1-1.6,3.5-3.5,4.5c-1,0.6-2.2,0.8-3.4,0.9c-1.2,0.1-2.5,0-3.7-0.3c-1.5-0.4-2.8-1.2-3.7-2.5
	c-0.8-1.1-1.3-2.3-1.4-3.7c-0.1-1.7-0.2-3.5,0-5.2c0.2-2.5,1.5-4.4,3.7-5.6c1.1-0.6,2.2-0.8,3.5-0.9c1.7-0.1,3.3,0.1,4.8,0.9
	c1.2,0.6,2.3,1.5,3,2.7c0.3,0.5,0.5,1.1,0.6,1.7c0.1,0.4-0.2,0.7-0.6,0.7c-1.1,0-2.2,0-3.4,0c-0.3,0-0.5-0.1-0.6-0.3
	c-0.1-0.1-0.3-0.3-0.4-0.4c-0.6-0.7-1.3-1.1-2.2-1.2c-0.7,0-1.5,0-2.1,0.3c-0.7,0.3-1.1,0.8-1.4,1.5c-0.2,0.5-0.3,1-0.3,1.5
	c-0.1,1.3-0.1,2.6,0,3.9c0,0.4,0.1,0.8,0.3,1.2c0.4,1,1.1,1.5,2.1,1.7c0.7,0.1,1.4,0.1,2.1-0.1c1.2-0.3,1.9-1.2,1.9-2.4
	c0-0.2,0-0.2-0.2-0.2c-0.6,0-1.2,0-1.7,0c-0.1,0-0.2,0-0.3,0c-0.3-0.1-0.5-0.3-0.5-0.6c0-0.9,0-1.9,0-2.8c0-0.3,0.2-0.6,0.6-0.6
	c0.1,0,0.2,0,0.3,0C-1571.8,1275.2-1570.9,1275.2-1569.9,1275.2z"/>
<path id="XMLID_9_" class="st1" d="M-1563.3,1277c0-2.7,0-5.3,0-8c0-0.1,0-0.2,0-0.3c0-0.3,0.3-0.6,0.6-0.6c0.1,0,0.2,0,0.3,0
	c3.8,0,7.6,0,11.4,0c0.1,0,0.1,0,0.2,0c0.5,0,0.7,0.3,0.8,0.7c0,0.1,0,0.1,0,0.2c0,0.8,0,1.5,0,2.3c0,0.1,0,0.1,0,0.2
	c0,0.5-0.3,0.7-0.7,0.7c-0.9,0-1.8,0-2.7,0c-1.6,0-3.2,0-4.8,0c-0.3,0-0.3,0-0.3,0.3c0,0.7,0,1.5,0,2.2c0,0.3,0,0.3,0.3,0.3
	c2.2,0,4.5,0,6.7,0c0.1,0,0.2,0,0.2,0c0.4,0,0.7,0.3,0.7,0.7c0,0.2,0,0.4,0,0.6c0,0.6,0,1.3,0,1.9c0,0.6-0.3,0.8-0.8,0.8
	c-2.2,0-4.4,0-6.6,0c-0.2,0-0.4-0.1-0.5,0c-0.1,0.1,0,0.3,0,0.4c0,0.7,0,1.4,0,2.1c0,0.3,0,0.3,0.3,0.3c2.5,0,5,0,7.5,0
	c0.1,0,0.2,0,0.3,0c0.4,0,0.7,0.3,0.7,0.7c0,0.9,0,1.8,0,2.7c0,0.4-0.3,0.6-0.6,0.7c-0.1,0-0.2,0-0.2,0c-3.9,0-7.8,0-11.7,0
	c-0.1,0-0.2,0-0.2,0c-0.4,0-0.6-0.3-0.6-0.7c0-0.1,0-0.2,0-0.2C-1563.3,1282.3-1563.3,1279.7-1563.3,1277z"/>
<path id="XMLID_6_" class="st1" d="M-1610.1,1268.1c0.6,0,1.3,0,1.9,0c0.7,0,1.1,0.1,1.4,1c0.9,2.6,1.8,5.1,2.7,7.7
	c0.9,2.7,1.9,5.4,2.8,8.2c0,0.1,0.1,0.2,0.1,0.2c0.1,0.4-0.1,0.6-0.5,0.7c-0.1,0-0.1,0-0.2,0c-1,0-2,0-2.9,0c-0.1,0-0.1,0-0.2,0
	c-0.6,0-0.8-0.2-1-0.8c-0.2-0.6-0.4-1.2-0.6-1.8c-0.1-0.2-0.1-0.2-0.3-0.2c-2.1,0-4.2,0-6.3,0c-0.2,0-0.2,0-0.3,0.2
	c-0.2,0.6-0.4,1.2-0.6,1.8c-0.2,0.5-0.4,0.7-1,0.7c-0.1,0-0.1,0-0.2,0c-1,0-2,0-3,0c-0.1,0-0.2,0-0.3,0c-0.3-0.1-0.4-0.4-0.4-0.6
	c0-0.2,0.1-0.3,0.1-0.5c1.8-5.2,3.6-10.4,5.4-15.6c0-0.1,0.1-0.2,0.1-0.3c0.2-0.5,0.6-0.8,1.2-0.8
	C-1611.4,1268.1-1610.8,1268.1-1610.1,1268.1z M-1608.1,1279.2c-0.2-0.8-1.9-5.8-2.1-6c-0.7,2-1.3,4-2,6
	C-1610.7,1279.2-1609.4,1279.2-1608.1,1279.2z"/>
<path id="XMLID_3_" class="st1" d="M-1585.2,1285.9c-0.5,0-0.9,0-1.4,0c-0.1,0-0.3,0-0.4,0c-0.4,0-0.6-0.3-0.7-0.6
	c-0.2-0.6-0.4-1.3-0.6-1.9c-0.1-0.2-0.1-0.2-0.3-0.2c-2.1,0-4.2,0-6.3,0c-0.2,0-0.2,0-0.3,0.3c-0.2,0.6-0.4,1.2-0.6,1.8
	c-0.2,0.5-0.4,0.7-1,0.7c-1.1,0-2.1,0-3.2,0c-0.5,0-0.7-0.4-0.6-0.9c0.6-1.6,1.1-3.3,1.7-4.9c1.3-3.7,2.5-7.3,3.8-11
	c0.1-0.2,0.1-0.3,0.2-0.4c0.2-0.4,0.6-0.6,1-0.6c1.4,0,2.7,0,4.1,0c0.6,0,1,0.3,1.2,0.9c0.3,0.8,0.5,1.6,0.8,2.3
	c1.6,4.6,3.2,9.1,4.7,13.7c0,0,0,0.1,0,0.1c0.1,0.4-0.1,0.8-0.5,0.8c-0.4,0-0.8,0-1.1,0C-1584.9,1285.9-1585.1,1285.9-1585.2,1285.9
	z M-1591.8,1273.2c-0.7,2.1-1.4,4-2,6.1c1.4,0,2.7,0,4.1,0C-1590.5,1277.2-1591.1,1275.2-1591.8,1273.2z"/>
<path id="XMLID_2_" class="st1" d="M-1625.4,1268.1c2.2,0,4.4,0,6.5,0c0.1,0,0.2,0,0.3,0c0.3,0,0.5,0.3,0.6,0.6c0,0.1,0,0.1,0,0.2
	c0,0.8,0,1.7,0,2.5c0,0.1,0,0.2,0,0.2c-0.1,0.3-0.3,0.5-0.6,0.5c-0.1,0-0.2,0-0.3,0c-1.3,0-2.6,0-3.9,0c-0.4,0-0.4-0.1-0.4,0.4
	c0,4.1,0,8.3,0,12.4c0,0.1,0,0.2,0,0.2c0,0.4-0.2,0.6-0.6,0.7c-0.1,0-0.2,0-0.2,0c-1,0-2,0-3,0c-0.1,0-0.2,0-0.4,0
	c-0.3-0.1-0.4-0.3-0.5-0.6c0-0.1,0-0.2,0-0.3c0-4.1,0-8.3,0-12.4c0-0.4,0-0.4-0.4-0.4c-1.3,0-2.6,0-3.9,0c-0.1,0-0.2,0-0.3,0
	c-0.4,0-0.6-0.3-0.6-0.7c0-0.9,0-1.8,0-2.7c0-0.4,0.3-0.7,0.6-0.7c0.1,0,0.2,0,0.3,0C-1629.8,1268.1-1627.6,1268.1-1625.4,1268.1z"
	/>
</svg>
