<?xml version="1.0" standalone="no"?>
<!DOCTYPE svg PUBLIC "-//W3C//DTD SVG 20010904//EN"
 "http://www.w3.org/TR/2001/REC-SVG-20010904/DTD/svg10.dtd">
<svg version="1.0" xmlns="http://www.w3.org/2000/svg"
 width="492.000000pt" height="492.000000pt" viewBox="0 0 492.000000 492.000000"
 preserveAspectRatio="xMidYMid meet">
<metadata>
Created by potrace 1.11, written by Peter Selinger 2001-2013
</metadata>
<g transform="translate(0.000000,492.000000) scale(0.100000,-0.100000)"
fill="#000000" stroke="none">
<path d="M545 4275 c-49 -7 -94 -10 -99 -7 -4 2 -11 0 -15 -6 -3 -6 -24 -24
-45 -41 -21 -17 -36 -31 -32 -31 4 0 0 -13 -9 -30 -32 -61 -7 -177 48 -218 9
-7 15 -17 13 -21 -5 -8 11 -10 139 -10 104 -1 183 4 249 15 31 5 37 3 30 -7
-6 -12 -5 -12 8 -1 9 7 30 14 47 15 17 1 31 5 31 9 0 3 18 24 39 46 22 22 37
43 34 46 -6 6 81 10 181 9 56 -1 62 -6 70 -53 3 -19 12 -50 21 -67 9 -18 18
-41 20 -52 2 -11 8 -28 14 -39 6 -11 8 -22 5 -25 -3 -3 1 -16 9 -28 9 -11 13
-27 11 -34 -3 -7 2 -29 10 -50 9 -20 14 -41 11 -45 -3 -5 -1 -10 4 -12 5 -1
11 -12 13 -23 1 -11 10 -28 18 -37 9 -10 22 -46 29 -80 7 -35 19 -74 26 -88 7
-14 21 -54 31 -90 10 -36 21 -69 25 -75 4 -5 10 -26 14 -45 4 -19 12 -46 18
-60 5 -14 11 -29 12 -35 2 -5 13 -35 25 -65 12 -30 23 -66 25 -80 7 -39 37
-124 48 -131 5 -4 6 -12 3 -18 -4 -6 -3 -11 2 -11 5 0 9 -6 10 -12 1 -26 32
-124 50 -163 11 -22 27 -71 36 -110 9 -38 21 -71 26 -73 6 -2 10 -12 10 -22 0
-11 4 -29 9 -42 20 -49 25 -64 27 -83 1 -11 8 -33 15 -50 7 -16 13 -34 14 -40
1 -5 11 -30 22 -55 20 -43 35 -88 89 -280 14 -47 34 -104 46 -127 12 -24 21
-56 20 -72 0 -16 5 -32 12 -34 7 -3 17 -20 21 -39 4 -18 10 -42 13 -53 3 -11
5 -30 6 -42 1 -12 3 -19 5 -17 3 2 11 -10 18 -27 l13 -30 47 24 c56 29 89 41
161 58 49 12 52 14 50 43 -1 17 -5 36 -10 42 -5 7 -15 34 -22 60 -12 44 -24
79 -46 139 -24 64 -50 144 -50 154 0 7 -8 31 -19 54 -10 23 -27 76 -37 117
-10 41 -21 77 -24 80 -7 7 -27 61 -61 170 -16 52 -34 102 -38 111 -5 9 -15 41
-22 72 -8 32 -17 57 -21 57 -5 0 -8 16 -8 36 0 19 -4 33 -9 30 -8 -5 -41 82
-41 108 0 6 -14 47 -31 91 -16 44 -33 94 -36 110 -3 17 -10 39 -16 50 -5 11
-11 29 -13 41 -1 12 -9 37 -17 55 -8 19 -25 63 -37 99 -12 36 -29 80 -37 98
-8 18 -12 36 -8 41 3 5 -5 31 -16 58 -12 26 -23 60 -24 76 -2 15 -7 33 -13 40
-8 10 -35 81 -37 97 0 3 -5 19 -11 35 -7 17 -17 49 -23 73 -7 23 -15 42 -19
42 -4 0 -8 10 -9 23 -2 28 -31 120 -55 173 -10 22 -18 50 -18 61 0 11 -7 34
-15 49 -8 16 -15 37 -15 46 0 9 -4 19 -9 22 -4 3 -14 26 -21 51 -7 25 -16 48
-20 50 -5 3 -36 1 -69 -3 -42 -6 -61 -5 -61 2 0 7 -3 7 -8 1 -4 -5 -11 -10
-17 -10 -5 0 -57 -4 -115 -9 -159 -13 -211 -14 -236 -2 -13 6 -24 14 -24 18 0
28 -201 34 -365 13z"/>
<path d="M3140 3863 c-19 -2 -50 -11 -68 -19 -20 -9 -44 -13 -59 -9 -16 4 -22
2 -18 -5 3 -5 -3 -10 -14 -10 -11 0 -23 -5 -27 -11 -3 -6 -27 -20 -53 -30 -31
-14 -75 -50 -132 -109 -80 -82 -88 -95 -114 -172 -23 -69 -27 -100 -28 -189 0
-93 3 -112 26 -163 15 -32 27 -64 27 -70 0 -7 10 -23 23 -36 12 -14 22 -29 22
-35 0 -5 10 -14 23 -20 12 -5 20 -16 17 -22 -2 -7 2 -13 11 -13 14 0 63 -27
74 -41 5 -6 52 -33 60 -34 3 0 14 -6 25 -12 32 -17 170 -59 308 -94 70 -18
127 -35 127 -39 0 -4 14 -7 31 -8 78 -2 269 -93 269 -127 0 -7 6 -15 14 -18 8
-3 24 -35 36 -72 35 -104 17 -190 -54 -260 -53 -52 -94 -70 -206 -92 -79 -15
-106 -16 -218 -5 -70 6 -152 20 -182 30 -95 33 -220 96 -228 115 -2 4 -10 7
-18 7 -8 0 -14 5 -14 10 0 6 -7 10 -15 10 -8 0 -15 4 -15 9 0 5 -11 12 -24 15
-80 20 -181 -164 -132 -239 9 -14 14 -31 10 -37 -4 -6 -3 -8 4 -4 6 3 19 -4
29 -17 10 -12 34 -33 53 -47 19 -13 37 -27 40 -31 3 -3 22 -12 43 -18 20 -7
37 -19 37 -26 0 -8 6 -12 14 -9 8 3 45 -3 83 -14 126 -35 173 -44 285 -51 282
-19 520 32 673 143 54 39 102 90 121 129 9 18 22 39 28 47 53 67 69 278 32
417 -49 184 -210 320 -471 398 -49 15 -97 29 -105 32 -8 4 -26 8 -40 10 -14 2
-50 11 -80 20 -30 8 -77 21 -105 27 -27 7 -57 15 -65 19 -8 3 -31 11 -51 17
-55 17 -127 78 -150 126 -24 53 -25 126 -1 166 23 42 90 108 107 108 8 0 18 6
22 13 10 17 66 37 102 37 15 0 32 5 38 11 15 15 275 8 280 -7 2 -7 12 -10 23
-7 10 3 29 -2 42 -11 12 -9 31 -16 40 -16 10 0 26 -4 36 -8 227 -111 213 -106
241 -91 14 8 38 32 53 54 25 35 28 47 25 101 -2 48 -9 71 -31 103 -16 23 -31
39 -34 36 -9 -9 -32 17 -25 28 3 6 1 7 -5 3 -6 -4 -28 4 -49 16 -53 33 -78 44
-153 69 -58 19 -89 22 -300 24 -129 2 -251 1 -270 -2z"/>
<path d="M4275 1609 c-44 -16 -89 -33 -100 -38 -11 -5 -33 -12 -49 -16 -15 -3
-47 -14 -70 -24 -22 -11 -61 -26 -86 -34 -25 -9 -90 -32 -145 -52 -126 -47
-284 -104 -400 -144 -49 -18 -97 -35 -105 -38 -8 -4 -17 -7 -20 -8 -3 -1 -12
-4 -20 -8 -8 -3 -24 -7 -35 -9 -11 -2 -22 -5 -25 -8 -6 -7 -74 -34 -115 -47
-23 -7 -30 -14 -29 -33 2 -37 8 -61 31 -110 12 -25 26 -67 32 -95 7 -27 15
-53 19 -57 4 -4 32 4 62 18 29 13 60 22 67 20 7 -3 13 -1 13 4 0 6 6 10 14 10
8 0 27 5 43 12 15 6 33 12 39 13 6 2 27 10 45 18 19 8 61 25 94 37 33 11 74
27 92 36 17 8 46 17 65 20 18 4 39 11 45 17 7 5 22 7 33 4 11 -3 18 -2 15 3
-5 8 127 61 157 63 9 1 15 3 12 6 -5 5 98 40 134 46 13 2 28 8 35 14 13 10
171 70 268 101 32 9 61 20 67 24 6 3 -4 44 -25 103 -19 54 -39 112 -44 129
-15 53 -26 55 -114 23z"/>
<path d="M2355 1375 c-54 -7 -104 -20 -125 -33 -19 -11 -57 -32 -85 -47 -27
-15 -63 -44 -80 -65 -16 -22 -36 -39 -44 -40 -8 0 -12 -3 -8 -6 3 -4 -4 -21
-17 -38 -85 -112 -130 -313 -105 -461 10 -60 39 -156 50 -165 3 -3 20 -30 37
-61 17 -30 40 -64 51 -73 11 -10 18 -23 15 -27 -3 -5 -1 -9 5 -9 5 0 25 -15
45 -33 40 -38 185 -114 208 -109 4 1 18 -2 32 -7 13 -6 42 -12 64 -16 49 -7
226 12 230 25 2 6 8 7 13 4 6 -3 16 0 24 6 8 6 19 9 25 5 5 -3 10 -1 10 4 0 6
7 11 15 11 8 0 15 4 15 10 0 5 4 9 8 7 22 -6 186 164 215 223 14 27 28 46 32
42 5 -4 5 -1 0 7 -4 7 -3 16 3 20 5 3 12 20 15 36 3 17 10 44 14 60 5 17 7 75
5 130 -2 55 -4 114 -5 132 0 18 -4 30 -9 27 -4 -3 -8 4 -8 16 0 22 -48 151
-59 160 -4 3 -22 25 -41 50 -39 51 -96 110 -106 110 -14 0 -53 38 -46 45 4 5
2 5 -4 2 -6 -3 -32 5 -57 18 -94 47 -195 59 -332 40z m228 -405 c17 -16 35
-30 39 -30 3 0 9 -13 13 -30 4 -16 10 -30 15 -30 4 0 15 -18 24 -40 19 -47 20
-53 6 -45 -5 3 -10 -1 -10 -10 0 -9 5 -13 10 -10 11 7 14 -8 3 -18 -3 -4 -8
-24 -10 -44 -4 -41 -58 -123 -66 -101 -3 7 -6 4 -6 -8 -1 -14 -15 -27 -49 -42
-54 -25 -83 -27 -114 -11 -15 8 -19 8 -14 0 4 -6 3 -11 -3 -11 -18 0 -61 23
-61 32 0 5 -13 14 -30 19 -20 7 -30 18 -30 31 0 10 -4 17 -9 13 -6 -3 -15 4
-21 15 -6 11 -7 20 -3 20 4 0 1 5 -7 10 -11 7 -15 28 -14 88 1 99 21 151 71
189 21 15 40 31 43 35 9 11 62 16 128 12 53 -3 67 -8 95 -34z"/>
</g>
</svg>
